<svg xmlns="http://www.w3.org/2000/svg" xmlns:xlink="http://www.w3.org/1999/xlink" width="500" height="300" viewBox="0 0 500 300">
  <defs>
    <clipPath id="clip-path">
      <rect id="Rectangle_22" data-name="Rectangle 22" width="326.293" height="198.111" fill="none"/>
    </clipPath>
    <clipPath id="clip-Hotels_Resorts">
      <rect width="500" height="300"/>
    </clipPath>
  </defs>
  <g id="Hotels_Resorts" data-name="Hotels &amp; Resorts" clip-path="url(#clip-Hotels_Resorts)">
    <rect width="500" height="300" fill="#fff"/>
    <g id="Group_38" data-name="Group 38" transform="translate(87 51)">
      <g id="Group_37" data-name="Group 37" clip-path="url(#clip-path)">
        <path id="Path_661" data-name="Path 661" d="M152.678,37.873a35.368,35.368,0,0,0,9.287,4.833,37.045,37.045,0,0,1,7.706-2.584,36.591,36.591,0,0,1,17.727.522,35.9,35.9,0,0,0-34.721-2.771" transform="translate(-16.497 -3.744)" fill="#d6b04b"/>
        <path id="Path_662" data-name="Path 662" d="M164.4,53.678a37.015,37.015,0,0,1,6.253-5.193,36.6,36.6,0,0,1,16.718-5.919A35.9,35.9,0,0,0,154,52.526,35.35,35.35,0,0,0,164.4,53.678" transform="translate(-16.64 -4.508)" fill="#d6b04b"/>
        <path id="Path_663" data-name="Path 663" d="M225.323,65.891a35.319,35.319,0,0,0-5.356-9,37.037,37.037,0,0,1-7.912-1.857,36.583,36.583,0,0,1-14.8-9.769,35.891,35.891,0,0,0,28.07,20.622" transform="translate(-21.314 -4.891)" fill="#d6b04b"/>
        <path id="Path_664" data-name="Path 664" d="M170.976,62.605a37.1,37.1,0,0,1,3.953-7.1,36.6,36.6,0,0,1,13.451-11.559,35.893,35.893,0,0,0-27.524,21.347,35.332,35.332,0,0,0,10.119-2.687" transform="translate(-17.381 -4.748)" fill="#d6b04b"/>
        <path id="Path_665" data-name="Path 665" d="M166.588,10.869a35.338,35.338,0,0,0,3.606,9.829,37.059,37.059,0,0,1,7.434,3.283,36.583,36.583,0,0,1,12.748,12.329,35.893,35.893,0,0,0-23.788-25.442" transform="translate(-18.001 -1.174)" fill="#d6b04b"/>
        <path id="Path_666" data-name="Path 666" d="M223.473,46.9a37.024,37.024,0,0,1-8.049,1.127,36.592,36.592,0,0,1-17.331-3.761,35.9,35.9,0,0,0,33.625,9.087,35.342,35.342,0,0,0-8.244-6.453" transform="translate(-21.405 -4.783)" fill="#d6b04b"/>
        <path id="Path_667" data-name="Path 667" d="M177.833,56.989a35.648,35.648,0,0,0-5.508,17.889,35.353,35.353,0,0,0,8.465-6.161,37.1,37.1,0,0,1,1.121-8.05,36.585,36.585,0,0,1,8.366-15.638,35.683,35.683,0,0,0-12.444,11.959" transform="translate(-18.62 -4.866)" fill="#d6b04b"/>
        <path id="Path_668" data-name="Path 668" d="M201.966,10.594a37.011,37.011,0,0,1,.382,8.118,36.592,36.592,0,0,1-5.34,16.912,35.693,35.693,0,0,0,10.026-14.048,35.654,35.654,0,0,0,2.117-18.6,35.327,35.327,0,0,0-7.185,7.615" transform="translate(-21.288 -0.322)" fill="#d6b04b"/>
        <path id="Path_669" data-name="Path 669" d="M233.15,38.532a35.322,35.322,0,0,0-10.019-3.039,37,37,0,0,1-7.1,3.959,36.591,36.591,0,0,1-17.52,2.754,35.895,35.895,0,0,0,34.636-3.675" transform="translate(-21.45 -3.835)" fill="#d6b04b"/>
        <path id="Path_670" data-name="Path 670" d="M157.072,23.258a35.33,35.33,0,0,0,6.913,7.862,37.089,37.089,0,0,1,8.119.376,36.592,36.592,0,0,1,16.341,6.891,35.894,35.894,0,0,0-31.374-15.128" transform="translate(-16.972 -2.506)" fill="#d6b04b"/>
        <path id="Path_671" data-name="Path 671" d="M179.693,13.216a37.093,37.093,0,0,1,5.747,5.748,36.589,36.589,0,0,1,7.432,16.1A35.9,35.9,0,0,0,179.882,2.748a35.355,35.355,0,0,0-.189,10.468" transform="translate(-19.384 -0.297)" fill="#d6b04b"/>
        <path id="Path_672" data-name="Path 672" d="M198.954,63.271A36.592,36.592,0,0,1,194.6,46.079a35.894,35.894,0,0,0,6.847,34.152,35.314,35.314,0,0,0,2.1-10.256,37.129,37.129,0,0,1-4.6-6.7" transform="translate(-20.843 -4.979)" fill="#d6b04b"/>
        <path id="Path_673" data-name="Path 673" d="M214.828,75.273a35.314,35.314,0,0,0-1.744-10.323,37.079,37.079,0,0,1-6.707-4.59A36.592,36.592,0,0,1,196.1,45.9a35.894,35.894,0,0,0,18.723,29.371" transform="translate(-21.19 -4.96)" fill="#d6b04b"/>
        <path id="Path_674" data-name="Path 674" d="M192.279,71.29a37.074,37.074,0,0,1-1.863-7.912,36.578,36.578,0,0,1,2.151-17.6,35.891,35.891,0,0,0-5.955,34.318,35.314,35.314,0,0,0,5.667-8.8" transform="translate(-19.948 -4.946)" fill="#d6b04b"/>
        <path id="Path_675" data-name="Path 675" d="M218.987,24.613a37.043,37.043,0,0,1-5.188,6.256,36.576,36.576,0,0,1-15.341,8.9,35.89,35.89,0,0,0,30.968-15.941,35.359,35.359,0,0,0-10.439.787" transform="translate(-21.444 -2.564)" fill="#d6b04b"/>
        <path id="Path_676" data-name="Path 676" d="M209.021,23.513a36.573,36.573,0,0,1-11.09,13.839,35.683,35.683,0,0,0,14.425-9.476A35.656,35.656,0,0,0,221.049,11.3a35.338,35.338,0,0,0-9.45,4.505,37.08,37.08,0,0,1-2.578,7.708" transform="translate(-21.387 -1.221)" fill="#d6b04b"/>
        <path id="Path_677" data-name="Path 677" d="M195.281,34.828A35.9,35.9,0,0,0,194.845,0a35.359,35.359,0,0,0-3.958,9.692,37.094,37.094,0,0,1,3.282,7.436,36.583,36.583,0,0,1,1.111,17.7" transform="translate(-20.626)" fill="#d6b04b"/>
        <path id="Path_678" data-name="Path 678" d="M276.054,139.22c-.214.329-.491.14-.409-.272a11.219,11.219,0,0,1,4.908-7.824,15.49,15.49,0,0,1,9.266-2.695,6.393,6.393,0,0,1,6.061,5.3c.437,2.812-.344,5.784-2.384,9.318a50.126,50.126,0,0,1-13.967,15.279c-3.964,2.787-7.506,5.166-13.034,6.632a22.075,22.075,0,0,1-6.385.671,10.566,10.566,0,0,1-5.313-1.272c-2.355-1.408-3.76-4.962-3.475-7.836.285-5.46,2.805-11.1,7.718-16.943A55.247,55.247,0,0,1,279.755,124.5a47.3,47.3,0,0,1,14.547-3.589c.2,0,.736-.022.927-.029a11.926,11.926,0,0,1,1.526.05l.282.042-1.536,4.215-.169-.008c-7.129-.357-13.205.6-18.082,2.846A28.109,28.109,0,0,0,265.312,138.3c-3.4,4.982-5.75,9.9-6.533,14.658-.425,2.593-.342,5.108.883,6.624,1.328,1.754,4.878,2.354,7.35,2.058a18.3,18.3,0,0,0,8.185-3.092c5.914-4.144,9.274-9.568,12.048-15.292,1.155-2.615,2.167-5.423,1.734-8.2a3.6,3.6,0,0,0-1.472-2.591,3.962,3.962,0,0,0-2.76-.412c-3.413.442-5.682,2.877-7.406,5.265-.463.641-1.1,1.578-1.287,1.907" transform="translate(-27.152 -13.061)" fill="#050605"/>
        <path id="Path_679" data-name="Path 679" d="M326.584,105.709c1.68-.572,4-.119,4.567,1.478,1.469,3.165-3.529,7.1-7,4.854-2.657-1.943-.567-5.61,2.429-6.332" transform="translate(-34.895 -11.397)" fill="#050605"/>
        <path id="Path_680" data-name="Path 680" d="M312.01,159.937l-14.731,5.716.008-.351c.144-5.972,2.987-11.523,5.739-16.89q.432-.842.856-1.677c.928-1.817,1.915-3.645,2.87-5.416,2.021-3.747,4.5-8.352,6.14-12.3a3.461,3.461,0,0,0,.286-2.8,1.666,1.666,0,0,0-1.3-1.006,9.347,9.347,0,0,0-3.589.551.461.461,0,0,1-.382-.838c4.2-1.568,9.456-3.351,13.683-4.92l1.158-.428,0,.328c-.047,3.193-1.382,6.212-2.673,9.13l-.254.576c-2.185,4.7-5.013,10.135-7.37,14.681-1.467,2.831-2.984,5.757-4.424,8.651-.162.361-.337.728-.51,1.094a14.525,14.525,0,0,0-1.451,3.8,1.428,1.428,0,0,0,.244,1.129,2.283,2.283,0,0,0,1.977.948,15.66,15.66,0,0,0,3.241-.831c.652-.235,1.012.612.49.85" transform="translate(-32.122 -12.921)" fill="#050605"/>
        <path id="Path_681" data-name="Path 681" d="M13.606,207.417q-1.347-.052-2.693-.051T8.22,207.4q-1.347.033-2.693.1v1.942q0,2.827.07,5.025t.212,4.31a11.687,11.687,0,0,0-1.31-.069H1.31a11.653,11.653,0,0,0-1.31.069q.142-2.113.212-4.31t.07-5.025V204.81q0-2.827-.07-5.025T0,195.372q.6.07,1.31.12t1.595.051q.886,0,1.595-.051t1.31-.12q-.177,2.217-.23,4.379t-.053,4.99q.919.035,2.215.052t3.206.016q1.913,0,3.118-.016t2.233-.052q0-2.828-.071-4.99t-.212-4.379q.6.07,1.31.12t1.595.051c.59,0,1.122-.016,1.594-.051s.91-.073,1.312-.12q-.143,2.217-.212,4.412t-.071,5.025v4.634q0,2.827.071,5.025t.212,4.31a11.709,11.709,0,0,0-1.312-.069H17.325a11.676,11.676,0,0,0-1.31.069q.14-2.113.212-4.31t.071-5.025V207.5q-1.347-.033-2.693-.085" transform="translate(0 -21.111)" fill="#d6b04b"/>
        <path id="Path_682" data-name="Path 682" d="M29.806,207.073a11.816,11.816,0,0,1,3.649-8.62,12.463,12.463,0,0,1,4.2-2.623,15.114,15.114,0,0,1,5.491-.954,17.282,17.282,0,0,1,5.178.75,11.839,11.839,0,0,1,4.169,2.248,10.471,10.471,0,0,1,2.8,3.8,13.076,13.076,0,0,1,1.026,5.365,11.537,11.537,0,0,1-.992,4.77,11.951,11.951,0,0,1-2.745,3.867,12.481,12.481,0,0,1-4.187,2.572,15.036,15.036,0,0,1-5.353.92,19.363,19.363,0,0,1-5.16-.665,11.116,11.116,0,0,1-4.2-2.145,10.4,10.4,0,0,1-2.833-3.782,13.257,13.257,0,0,1-1.042-5.5m20.815-.75a13.167,13.167,0,0,0-.556-3.969,9.067,9.067,0,0,0-1.547-2.981,6.758,6.758,0,0,0-2.4-1.89,7.094,7.094,0,0,0-3.075-.665,6.117,6.117,0,0,0-3.179.834,7.449,7.449,0,0,0-2.381,2.266,10.785,10.785,0,0,0-1.478,3.355,16.239,16.239,0,0,0-.5,4.107,15.479,15.479,0,0,0,.59,4.6,8.223,8.223,0,0,0,1.6,3.015,5.937,5.937,0,0,0,2.328,1.652,7.628,7.628,0,0,0,2.779.512,7.146,7.146,0,0,0,2.989-.648,6.711,6.711,0,0,0,2.485-1.977,10.333,10.333,0,0,0,1.7-3.372,16.215,16.215,0,0,0,.643-4.838" transform="translate(-3.221 -21.057)" fill="#d6b04b"/>
        <path id="Path_683" data-name="Path 683" d="M68.983,199.12a7.728,7.728,0,0,0-.091-1.193q-.547,0-1.349.035t-1.713.085q-.911.051-1.859.136t-1.75.188c.049-.25.091-.5.128-.75a5.1,5.1,0,0,0,0-1.5c-.037-.25-.078-.5-.128-.75q1.24.036,2.242.069t2.042.051q1.04.017,2.259.034t2.935.017q1.711,0,2.934-.017t2.241-.034q1.022-.017,1.987-.051t2.1-.069c-.049.251-.09.5-.128.75a5.186,5.186,0,0,0,0,1.5c.037.251.078.5.128.75q-.729-.1-1.639-.188t-1.805-.136q-.894-.051-1.695-.085c-.536-.023-.984-.035-1.349-.035a3.079,3.079,0,0,0-.055.477c-.012.205-.018.442-.018.715v10.322q0,2.828.073,5.025t.218,4.31a12.341,12.341,0,0,0-1.349-.068H70.059a12.341,12.341,0,0,0-1.349.068q.144-2.113.219-4.31T69,209.442v-8.517q0-.987-.019-1.805" transform="translate(-6.723 -21.111)" fill="#d6b04b"/>
        <path id="Path_684" data-name="Path 684" d="M88.923,199.784q-.074-2.2-.219-4.412,1.64.036,3.245.1t3.244.068q2.7,0,4.794-.051t2.825-.12a5.678,5.678,0,0,0-.145,1.432,7.755,7.755,0,0,0,.036.852q.036.306.11.681-1.057-.068-2.315-.136t-2.442-.136q-1.187-.068-2.134-.1c-.632-.022-1.082-.035-1.349-.035q-.146,1.874-.163,3.714t-.018,3.713q2.368-.033,4.282-.1t3.992-.169q-.111.579-.147.885a5.764,5.764,0,0,0-.036.648,2.941,2.941,0,0,0,.055.563q.054.29.128.834-4.157-.306-8.275-.307c0,.728-.008,1.454-.02,2.182s-.018,1.454-.018,2.18q0,2.214.11,4.258,2.076,0,4.156-.1t4.192-.34c-.049.251-.086.477-.11.681a10.185,10.185,0,0,0,0,1.7,2.325,2.325,0,0,0,.11.51q-.983-.033-2.424-.051t-3.956-.017H90.654c-.546,0-.96.005-1.239.017s-.516.029-.711.051q.146-2.113.219-4.309T89,209.442V204.81q0-2.828-.073-5.025" transform="translate(-9.585 -21.111)" fill="#d6b04b"/>
        <path id="Path_685" data-name="Path 685" d="M111.4,199.784q-.074-2.2-.219-4.412.619.07,1.349.12t1.641.051q.911,0,1.64-.051t1.349-.12q-.146,2.217-.219,4.412t-.073,5.025v4.633q0,1.943.019,3.749t.054,3.133q2.076,0,4.156-.1t4.192-.34c-.049.251-.086.477-.11.681a10.185,10.185,0,0,0,0,1.7,2.325,2.325,0,0,0,.11.51q-.983-.033-2.424-.051t-3.955-.017h-5.779c-.546,0-.96.005-1.239.017s-.516.029-.711.051q.146-2.113.219-4.309t.074-5.026V204.81q0-2.828-.074-5.025" transform="translate(-12.014 -21.111)" fill="#d6b04b"/>
        <path id="Path_686" data-name="Path 686" d="M140.647,196.988a4.655,4.655,0,0,0-2.99.92,2.689,2.689,0,0,0-1.155,2.147,2.634,2.634,0,0,0,.9,2.06,9.447,9.447,0,0,0,2.251,1.448q1.357.648,2.91,1.244a16.008,16.008,0,0,1,2.91,1.465,8.206,8.206,0,0,1,2.252,2.113,5.312,5.312,0,0,1,.9,3.185,6.506,6.506,0,0,1-.757,3.117,7.106,7.106,0,0,1-2.152,2.418,10.27,10.27,0,0,1-3.329,1.534,16.443,16.443,0,0,1-4.325.528,17.122,17.122,0,0,1-3.846-.392,8.053,8.053,0,0,1-2.571-.97q.4-1.193.678-2.182a21.414,21.414,0,0,0,.478-2.145h.757a4.065,4.065,0,0,0,.6,1.413,4.7,4.7,0,0,0,1.115,1.176,5.179,5.179,0,0,0,1.635.8,7.431,7.431,0,0,0,2.152.29,5.162,5.162,0,0,0,3.528-1.022,3.189,3.189,0,0,0,1.136-2.453,2.755,2.755,0,0,0-.878-2.112,8.667,8.667,0,0,0-2.192-1.448q-1.317-.632-2.87-1.227a15.408,15.408,0,0,1-2.869-1.448,7.916,7.916,0,0,1-2.193-2.1,5.4,5.4,0,0,1-.876-3.185,6.486,6.486,0,0,1,.737-3.135,6.917,6.917,0,0,1,1.974-2.282,8.972,8.972,0,0,1,2.85-1.4,11.98,11.98,0,0,1,3.408-.477,14.342,14.342,0,0,1,3.766.442,9.266,9.266,0,0,1,2.77,1.227q-.357.784-.617,1.515l-.657,1.857h-.6a4.778,4.778,0,0,0-4.823-2.93" transform="translate(-14.224 -21.057)" fill="#d6b04b"/>
        <path id="Path_687" data-name="Path 687" d="M173.945,216.652a11.887,11.887,0,0,1-3.809,1.925,14.794,14.794,0,0,1-4.356.665,9.31,9.31,0,0,1-3.008-.443,6.419,6.419,0,0,1-2.169-1.209,5.079,5.079,0,0,1-1.311-1.738,4.793,4.793,0,0,1-.438-1.993,5.627,5.627,0,0,1,.475-2.369,6.377,6.377,0,0,1,1.33-1.89,10.361,10.361,0,0,1,2.078-1.568q1.22-.716,2.679-1.43a26,26,0,0,1-1.913-2.845,5.469,5.469,0,0,1-.747-2.743,4.9,4.9,0,0,1,.6-2.522,5.34,5.34,0,0,1,1.55-1.686,6.268,6.268,0,0,1,2.15-.954,10.322,10.322,0,0,1,2.406-.29,9.536,9.536,0,0,1,2.35.274,6.406,6.406,0,0,1,1.878.783,3.515,3.515,0,0,1,1.677,3.1,4.571,4.571,0,0,1-1.131,3.015,13.912,13.912,0,0,1-3.536,2.777q1.385,1.738,2.807,3.323t2.953,3.219a27.739,27.739,0,0,0,2.077-2.691,32.772,32.772,0,0,0,2.259-3.884q.512.546,1,1.039t1,.937a31.505,31.505,0,0,1-2.461,3.133q-1.258,1.4-2.606,2.827.582.648,1.276,1.364t1.4,1.448q.712.733,1.423,1.414a16.231,16.231,0,0,0,1.33,1.159q-1.349-.035-2.406-.052t-2.078-.017c-.487,0-.978.005-1.476.017s-1,.029-1.513.052Zm-10.207-4.6a4.366,4.366,0,0,0,.347,1.687,4.56,4.56,0,0,0,1.039,1.515,5.4,5.4,0,0,0,1.677,1.107,5.521,5.521,0,0,0,2.224.427,6.519,6.519,0,0,0,2.133-.358,5.489,5.489,0,0,0,1.768-.972q-1.64-1.873-3.263-3.73t-3.19-3.8a8.6,8.6,0,0,0-2.005,1.857,3.669,3.669,0,0,0-.73,2.266m3.719-12.5a4.879,4.879,0,0,0,.675,2.3,18.607,18.607,0,0,0,1.586,2.436,9.045,9.045,0,0,0,.947-.783,7.292,7.292,0,0,0,.947-1.09,6.485,6.485,0,0,0,.729-1.33,3.932,3.932,0,0,0,.293-1.5,2.256,2.256,0,0,0-.8-1.805,2.7,2.7,0,0,0-1.786-.681,2.779,2.779,0,0,0-1.824.63,2.227,2.227,0,0,0-.765,1.823" transform="translate(-17.165 -21.131)" fill="#d6b04b"/>
        <path id="Path_688" data-name="Path 688" d="M200.764,208.047v1.4q0,2.828.074,5.025t.22,4.31a12.6,12.6,0,0,0-1.36-.068h-3.312a12.608,12.608,0,0,0-1.362.068q.147-2.113.22-4.31t.074-5.025V204.81q0-2.828-.074-5.025t-.22-4.412c.417.046.871.086,1.362.12s1.043.051,1.655.051q.994,0,2.263-.085t3.146-.086q1.4,0,2.391.07a14.717,14.717,0,0,1,1.712.2A6.35,6.35,0,0,1,208.8,196a6.453,6.453,0,0,1,1.012.529,5.674,5.674,0,0,1,1.747,1.856,5.168,5.168,0,0,1,.644,2.64,5.688,5.688,0,0,1-1.472,4.055A8.215,8.215,0,0,1,206.5,207.3q1.766,2.9,3.79,5.774t4.048,5.706q-.848-.068-1.656-.068h-3.33q-.828,0-1.674.068L201.1,208.047Zm5.814-6.27a7,7,0,0,0-.33-2.384,2.715,2.715,0,0,0-1.012-1.346,4.032,4.032,0,0,0-1.767-.6,21.358,21.358,0,0,0-2.594-.136q-.11,4.633-.111,9.267c.148.022.289.039.424.05s.263.018.386.018a5.228,5.228,0,0,0,3.716-1.209,4.8,4.8,0,0,0,1.288-3.663" transform="translate(-21.073 -21.111)" fill="#d6b04b"/>
        <path id="Path_689" data-name="Path 689" d="M221.775,199.784q-.07-2.2-.212-4.412,1.6.036,3.154.1t3.153.068q2.621,0,4.66-.051t2.746-.12a5.829,5.829,0,0,0-.142,1.432,7.8,7.8,0,0,0,.035.852q.036.306.107.681-1.029-.068-2.25-.136t-2.374-.136q-1.152-.068-2.072-.1c-.615-.022-1.052-.035-1.311-.035q-.143,1.874-.16,3.714t-.018,3.713q2.3-.033,4.163-.1t3.881-.169c-.071.386-.12.681-.142.885a5.561,5.561,0,0,0-.036.648,3.086,3.086,0,0,0,.054.563c.035.194.077.472.124.834q-4.039-.306-8.044-.307,0,1.092-.018,2.182t-.018,2.18q0,2.214.107,4.258,2.02,0,4.04-.1t4.074-.34c-.047.251-.083.477-.107.681a10.445,10.445,0,0,0,0,1.7,2.451,2.451,0,0,0,.107.51q-.957-.033-2.357-.051t-3.844-.017h-5.616q-.8,0-1.205.017t-.691.051q.142-2.113.212-4.309t.071-5.026V204.81q0-2.828-.071-5.025" transform="translate(-23.941 -21.111)" fill="#d6b04b"/>
        <path id="Path_690" data-name="Path 690" d="M250.856,196.988a4.655,4.655,0,0,0-2.99.92,2.689,2.689,0,0,0-1.155,2.147,2.634,2.634,0,0,0,.9,2.06,9.447,9.447,0,0,0,2.251,1.448q1.357.648,2.91,1.244a16.009,16.009,0,0,1,2.91,1.465,8.206,8.206,0,0,1,2.252,2.113,5.312,5.312,0,0,1,.9,3.185,6.506,6.506,0,0,1-.757,3.117,7.106,7.106,0,0,1-2.152,2.418,10.27,10.27,0,0,1-3.329,1.534,16.443,16.443,0,0,1-4.325.528,17.122,17.122,0,0,1-3.846-.392,8.053,8.053,0,0,1-2.571-.97q.4-1.193.678-2.182a21.418,21.418,0,0,0,.478-2.145h.757a4.065,4.065,0,0,0,.6,1.413,4.7,4.7,0,0,0,1.115,1.176,5.179,5.179,0,0,0,1.635.8,7.431,7.431,0,0,0,2.152.29,5.162,5.162,0,0,0,3.528-1.022,3.189,3.189,0,0,0,1.136-2.453,2.755,2.755,0,0,0-.878-2.112,8.667,8.667,0,0,0-2.192-1.448q-1.317-.632-2.87-1.227a15.408,15.408,0,0,1-2.869-1.448,7.916,7.916,0,0,1-2.193-2.1,5.4,5.4,0,0,1-.876-3.185,6.486,6.486,0,0,1,.737-3.135,6.917,6.917,0,0,1,1.974-2.282,8.972,8.972,0,0,1,2.85-1.4,11.98,11.98,0,0,1,3.408-.477,14.342,14.342,0,0,1,3.766.442,9.267,9.267,0,0,1,2.77,1.227q-.357.784-.617,1.515l-.657,1.857h-.6a4.778,4.778,0,0,0-4.823-2.93" transform="translate(-26.133 -21.057)" fill="#d6b04b"/>
        <path id="Path_691" data-name="Path 691" d="M265.288,207.073a11.816,11.816,0,0,1,3.649-8.62,12.463,12.463,0,0,1,4.2-2.623,15.114,15.114,0,0,1,5.491-.954,17.282,17.282,0,0,1,5.178.75,11.839,11.839,0,0,1,4.169,2.248,10.47,10.47,0,0,1,2.8,3.8,13.075,13.075,0,0,1,1.026,5.365,11.536,11.536,0,0,1-.992,4.77,11.952,11.952,0,0,1-2.745,3.867,12.48,12.48,0,0,1-4.187,2.572,15.035,15.035,0,0,1-5.353.92,19.363,19.363,0,0,1-5.16-.665,11.116,11.116,0,0,1-4.2-2.145,10.4,10.4,0,0,1-2.833-3.782,13.257,13.257,0,0,1-1.042-5.5m20.815-.75a13.167,13.167,0,0,0-.556-3.969A9.068,9.068,0,0,0,284,199.373a6.759,6.759,0,0,0-2.4-1.89,7.094,7.094,0,0,0-3.075-.665,6.117,6.117,0,0,0-3.179.834,7.449,7.449,0,0,0-2.381,2.266,10.786,10.786,0,0,0-1.478,3.355,16.239,16.239,0,0,0-.5,4.107,15.481,15.481,0,0,0,.59,4.6,8.223,8.223,0,0,0,1.6,3.015,5.937,5.937,0,0,0,2.328,1.652,7.628,7.628,0,0,0,2.779.512,7.146,7.146,0,0,0,2.989-.648,6.711,6.711,0,0,0,2.485-1.977,10.333,10.333,0,0,0,1.7-3.372,16.217,16.217,0,0,0,.643-4.838" transform="translate(-28.665 -21.057)" fill="#d6b04b"/>
        <path id="Path_692" data-name="Path 692" d="M305.381,208.047v1.4q0,2.828.074,5.025t.22,4.31a12.6,12.6,0,0,0-1.36-.068H301a12.608,12.608,0,0,0-1.362.068q.147-2.113.22-4.31t.074-5.025V204.81q0-2.828-.074-5.025t-.22-4.412c.417.046.871.086,1.362.12s1.043.051,1.655.051q.994,0,2.263-.085t3.146-.086q1.4,0,2.391.07a14.716,14.716,0,0,1,1.712.2,6.35,6.35,0,0,1,1.251.358,6.453,6.453,0,0,1,1.012.529,5.674,5.674,0,0,1,1.747,1.856,5.168,5.168,0,0,1,.644,2.64,5.688,5.688,0,0,1-1.472,4.055,8.215,8.215,0,0,1-4.231,2.215q1.766,2.9,3.79,5.774t4.048,5.706q-.848-.068-1.656-.068h-3.33q-.828,0-1.674.068l-6.586-10.731Zm5.814-6.27a7,7,0,0,0-.33-2.384,2.715,2.715,0,0,0-1.012-1.346,4.032,4.032,0,0,0-1.767-.6,21.358,21.358,0,0,0-2.594-.136q-.11,4.633-.111,9.267c.148.022.289.039.424.05s.263.018.386.018a5.228,5.228,0,0,0,3.716-1.209,4.8,4.8,0,0,0,1.288-3.663" transform="translate(-32.377 -21.111)" fill="#d6b04b"/>
        <path id="Path_693" data-name="Path 693" d="M329.736,199.12a7.929,7.929,0,0,0-.088-1.193c-.354,0-.792.012-1.31.035s-1.076.051-1.666.085-1.193.079-1.807.136-1.182.12-1.7.188c.046-.25.088-.5.124-.75a5.361,5.361,0,0,0,0-1.5c-.036-.25-.078-.5-.124-.75q1.2.036,2.178.069t1.985.051c.674.012,1.4.023,2.2.034s1.742.017,2.852.017,2.06,0,2.852-.017,1.517-.022,2.179-.034,1.3-.028,1.931-.051,1.3-.045,2.037-.069c-.047.251-.089.5-.124.75a5.27,5.27,0,0,0,0,1.5c.035.251.077.5.124.75-.473-.069-1.005-.131-1.594-.188s-1.176-.1-1.754-.136-1.128-.062-1.648-.085-.956-.035-1.31-.035a3.364,3.364,0,0,0-.054.477c-.012.205-.017.442-.017.715v10.322q0,2.828.07,5.025t.212,4.31a11.694,11.694,0,0,0-1.31-.068h-3.189a11.666,11.666,0,0,0-1.311.068q.139-2.113.212-4.31t.07-5.025v-8.517q0-.987-.018-1.805" transform="translate(-34.919 -21.111)" fill="#d6b04b"/>
        <path id="Path_694" data-name="Path 694" d="M355.793,196.988a4.65,4.65,0,0,0-2.989.92,2.688,2.688,0,0,0-1.156,2.147,2.637,2.637,0,0,0,.9,2.06,9.465,9.465,0,0,0,2.251,1.448q1.357.648,2.91,1.244a16.046,16.046,0,0,1,2.91,1.465,8.2,8.2,0,0,1,2.251,2.113,5.312,5.312,0,0,1,.9,3.185,6.506,6.506,0,0,1-.757,3.117,7.106,7.106,0,0,1-2.152,2.418,10.27,10.27,0,0,1-3.329,1.534,16.443,16.443,0,0,1-4.325.528,17.128,17.128,0,0,1-3.846-.392,8.062,8.062,0,0,1-2.571-.97q.4-1.193.678-2.182a21.419,21.419,0,0,0,.479-2.145h.757a4.047,4.047,0,0,0,.6,1.413,4.714,4.714,0,0,0,1.115,1.176,5.184,5.184,0,0,0,1.636.8,7.421,7.421,0,0,0,2.151.29,5.162,5.162,0,0,0,3.528-1.022,3.189,3.189,0,0,0,1.137-2.453,2.756,2.756,0,0,0-.879-2.112,8.667,8.667,0,0,0-2.191-1.448q-1.317-.632-2.869-1.227a15.389,15.389,0,0,1-2.87-1.448,7.916,7.916,0,0,1-2.193-2.1,5.4,5.4,0,0,1-.876-3.185,6.476,6.476,0,0,1,.738-3.135,6.914,6.914,0,0,1,1.973-2.282,8.972,8.972,0,0,1,2.85-1.4,11.984,11.984,0,0,1,3.408-.477,14.342,14.342,0,0,1,3.766.442,9.256,9.256,0,0,1,2.77,1.227q-.357.784-.617,1.515l-.657,1.857h-.6a4.779,4.779,0,0,0-4.824-2.93" transform="translate(-37.471 -21.057)" fill="#d6b04b"/>
        <path id="Path_695" data-name="Path 695" d="M51.179,101.231c-8.265,5.762-13.274,15.045-14.806,24.228a38.565,38.565,0,0,0,.683,15.941,29.239,29.239,0,0,0,9.4,14.6c5.573,4.93,12.472,7.22,19.567,8.031a42.7,42.7,0,0,0,5.04.262c10.194-.037,16.542-2.4,24.815-7.654,12.5-7.936,22.773-21.1,25.39-35.5,1.635-8.99-.039-14.695-2.387-20.7a25.523,25.523,0,0,0-13.62-13.989,33.683,33.683,0,0,0-15.78-3.037,34.682,34.682,0,0,0-19.111,6.446,39.57,39.57,0,0,0-6.425,5.931,34.828,34.828,0,0,0-12.767,5.438m10.46-1.759a37.364,37.364,0,0,0-5.163,13.476c-1.048,8.307.257,15.67,3.531,24.12.65,1.685.986,2.659,1.342,3.881a18.2,18.2,0,0,1-.02,11.3,6.99,6.99,0,0,1-3.1,3.735,35.8,35.8,0,0,1-3.793-2.307c-.376-.265-.627-.476-.909-.711-3.867-3.225-7.817-7.095-9.551-15a43.916,43.916,0,0,1-.9-8.537,38.622,38.622,0,0,1,3.884-17.03c1.808-3.653,5.367-8.664,9.637-10.917a21.38,21.38,0,0,1,5.04-2.008m22.9-12.409a24.691,24.691,0,0,1,4.792-.467A23.543,23.543,0,0,1,97.423,88a20.839,20.839,0,0,1,8.088,5.176A22.067,22.067,0,0,1,109.84,99.7c2.926,6.152,3.71,12.4,3.156,20.716a45.98,45.98,0,0,1-10.281,26.006,38.457,38.457,0,0,1-17.692,11.789c-6.325,1.96-16.656,1.8-22.885-.559-.472-.179-.578-.225-1.039-.413a7.238,7.238,0,0,0,1.539-1.314c.183-.191.4-.421.554-.584,1.889-1.986,3.408-6.116,3.639-8.987.579-7.2-1.269-10.81-3.195-17.836A48.868,48.868,0,0,1,62.31,122.3c-1.064-7.385-.691-14.038,1.934-19.7,3.744-8.044,10.436-13.619,20.3-15.536" transform="translate(-3.874 -9.006)" fill="#050605"/>
        <path id="Path_696" data-name="Path 696" d="M214.507,146.61a19.794,19.794,0,0,1-1.523,2.307l-.169.257a46.74,46.74,0,0,1-9.935,10.364,36.841,36.841,0,0,1-9.738,4.879,26.01,26.01,0,0,1-7.083,1.237,19.88,19.88,0,0,1-3.745-.219,6.569,6.569,0,0,1-5.116-3.73,13.463,13.463,0,0,1-.293-8.46c2-7.3,6.733-14.326,12.233-19.567a54.656,54.656,0,0,1,13.679-9.507c3.828-1.82,8.923-3.879,14.4-3.786a4.977,4.977,0,0,1,3.235,1.128,2.786,2.786,0,0,1,.962,2.182,8.311,8.311,0,0,1-2.533,6.216c-4.2,4.269-10.552,7.335-18.874,9.059-2,.414-4.773-.029-5.741-1.913l-.189-.367.422.045c6.37.689,12.856-.956,17.351-4.405,1.584-1.26,3.578-3.557,3.344-5.855-.159-1.543-1.83-2.5-3.512-2.5h-.005a17.312,17.312,0,0,0-9.178,2.664,40.848,40.848,0,0,0-14.792,15.293c-2.851,5.465-4.143,9.985-4.062,14.223a5.108,5.108,0,0,0,3.07,4.925,8.22,8.22,0,0,0,2.8.448,16.971,16.971,0,0,0,6.989-1.317,33.239,33.239,0,0,0,13.26-10.884,43.621,43.621,0,0,0,3-4.349c.487-.838.81-1.572,1.292-2.544l.846-1.9c.145-.334.408-.367.433.055a12.318,12.318,0,0,1-.837,6.022" transform="translate(-19.057 -13.008)" fill="#050605"/>
        <path id="Path_697" data-name="Path 697" d="M276.308,139.12c-.215.331-.492.141-.409-.274a11.276,11.276,0,0,1,4.91-7.861,15.448,15.448,0,0,1,9.271-2.707,6.4,6.4,0,0,1,6.063,5.328c.439,2.826-.344,5.813-2.383,9.363a50.316,50.316,0,0,1-13.974,15.352c-3.966,2.8-7.509,5.191-13.042,6.664a22,22,0,0,1-6.387.674,10.54,10.54,0,0,1-5.314-1.279c-2.357-1.415-3.763-4.985-3.477-7.872.285-5.486,2.806-11.158,7.722-17.025a55.276,55.276,0,0,1,20.723-15.151,47.155,47.155,0,0,1,14.552-3.606c.2,0,.738-.022.929-.029a11.91,11.91,0,0,1,1.525.05l.283.042-1.538,4.236-.168-.008c-7.132-.359-13.211.6-18.091,2.86a28.146,28.146,0,0,0-11.943,10.313c-3.4,5-5.752,9.948-6.535,14.729-.427,2.605-.342,5.132.882,6.655,1.329,1.762,4.882,2.365,7.354,2.068a18.265,18.265,0,0,0,8.189-3.107c5.916-4.164,9.277-9.614,12.053-15.365,1.156-2.628,2.167-5.449,1.735-8.239a3.615,3.615,0,0,0-1.472-2.6,3.945,3.945,0,0,0-2.761-.414c-3.415.443-5.686,2.89-7.409,5.29-.464.644-1.1,1.585-1.288,1.916" transform="translate(-27.179 -13.041)" fill="#050605"/>
        <path id="Path_698" data-name="Path 698" d="M229.323,127.611c4.67-2.431,10.6-4.608,15.169-7.151.22,4.916-2.659,9.563-4.757,14.124,5.881-3.967,11.618-8.4,18.112-11.84,2.776-1.468,6.59-2.959,10.054-1.964-.59,1.623-1.383,3.2-2.042,4.811a15.1,15.1,0,0,0-10.376,1.369,48.472,48.472,0,0,0-16.23,12.882c-5.378,7.223-8.845,15.842-12.232,23.672-2.435.478-5.789.993-8.208,1.507,5.133-10.771,11.074-22.011,14.977-33.1.484-1.364,1.13-3.482-.938-4.195-.846-.292-2.506.419-3.01.614s-.982-.481-.519-.735" transform="translate(-23.644 -13.016)" fill="#050605"/>
        <path id="Path_699" data-name="Path 699" d="M161.75,86.318c-4.239,1.693-10.352,3.988-14.334,5.582-.747.3-1.7.66-2.576,1.022-.389.139-.176.969.342.841,1.521-.375,2.98-.99,4.442-.306,1.234.562,1.242,1.811.829,2.893l-.8,1.909L120.11,161.732a80.473,80.473,0,0,0,23.769-4.4c8.085-2.951,14.664-7.6,20.82-12.975,5.179-4.413,9.164-10.87,11.661-16.709a10.082,10.082,0,0,0,.122-8.116,5.925,5.925,0,0,0-4.519-2.609,27.048,27.048,0,0,0-11.385,1.854c-7.009,2.746-13.369,7.6-19.047,11.973,4.66-9.487,9.9-20.684,14.48-30.322l.45-1,5.894-12.663c.226-.475-.01-.71-.6-.45m6.593,42.155c-1.132,4.02-3.8,8.441-6.287,11.981a39.983,39.983,0,0,1-16.886,13.779,32.823,32.823,0,0,1-15.475,2.223,88.312,88.312,0,0,1,11.977-20.214,67.587,67.587,0,0,1,13.676-12.187c2.5-1.545,5.328-3.078,8.542-3.091,1.463-.062,3.43.646,4,1.8a7.519,7.519,0,0,1,.453,5.706" transform="translate(-12.978 -9.315)" fill="#050605"/>
        <path id="Path_700" data-name="Path 700" d="M326.861,105.449c1.68-.574,4-.12,4.568,1.485,1.47,3.18-3.53,7.133-7,4.877-2.658-1.952-.566-5.638,2.431-6.362" transform="translate(-34.924 -11.369)" fill="#050605"/>
        <path id="Path_701" data-name="Path 701" d="M312.717,159.2l-14.738,5.743.007-.351c.145-6,2.99-11.578,5.741-16.97q.433-.846.857-1.686c.928-1.825,1.917-3.663,2.872-5.442,2.022-3.764,4.112-7.656,5.753-11.619a3.489,3.489,0,0,0,.286-2.815,1.667,1.667,0,0,0-1.3-1.011,9.314,9.314,0,0,0-3.591.554.463.463,0,0,1-.382-.843c4.2-1.575,9.46-3.367,13.689-4.943l1.16-.431-.005.33c-.047,3.208-1.382,6.241-2.675,9.175l-.254.578c-2.185,4.725-4.625,9.448-6.984,14.016-1.468,2.844-2.984,5.784-4.425,8.693-.162.362-.337.73-.51,1.1a14.637,14.637,0,0,0-1.452,3.818,1.441,1.441,0,0,0,.243,1.135,2.282,2.282,0,0,0,1.978.953,15.574,15.574,0,0,0,3.242-.836c.653-.235,1.013.615.491.854" transform="translate(-32.198 -12.9)" fill="#050605"/>
      </g>
    </g>
  </g>
</svg>
